<?xml version="1.0" encoding="UTF-8"?>
<svg id="Layer_2" data-name="Layer 2" xmlns="http://www.w3.org/2000/svg" xmlns:xlink="http://www.w3.org/1999/xlink" viewBox="0 0 164 56">
  <defs>
    <style>
      .cls-1 {
        fill: url(#linear-gradient);
      }

      .cls-1, .cls-2 {
        stroke-width: 0px;
      }

      .cls-3 {
        fill: #e9e8e8;
        font-family: NotoSans-Medium, 'Noto Sans';
        font-variation-settings: 'wght' 500, 'wdth' 100;
        font-weight: 500;
        letter-spacing: -.04em;
      }

      .cls-3, .cls-4 {
        font-size: 17px;
      }

      .cls-5 {
        fill: none;
        stroke: rgba(255, 255, 255, .15);
        stroke-width: 2.1px;
      }

      .cls-4 {
        font-family: NotoSans-ExtraBold, 'Noto Sans';
        font-variation-settings: 'wght' 800, 'wdth' 100;
        font-weight: 700;
        letter-spacing: -.02em;
      }

      .cls-4, .cls-2 {
        fill: #52b848;
      }
    </style>
    <linearGradient id="linear-gradient" x1="82" y1="791.44" x2="82" y2="735.44" gradientTransform="translate(0 791.44) scale(1 -1)" gradientUnits="userSpaceOnUse">
      <stop offset="0" stop-color="#265a2c"/>
      <stop offset="1" stop-color="#0e1f12"/>
    </linearGradient>
  </defs>
  <g id="Layer_1-2" data-name="Layer 1">
    <rect class="cls-1" width="164" height="56" rx="8" ry="8"/>
    <g>
      <path class="cls-2" d="m30.01,8.11c-6.9.69-12.89,4.82-16,11.06-1.03,2.07-1.73,4.46-1.96,6.72l-.05.52h1.78c.98,0,1.78-.03,1.79-.07.1-1.45.74-3.73,1.52-5.36,2.76-5.77,8.49-9.39,14.84-9.39,2.69,0,4.98.53,7.31,1.68,2.66,1.32,4.79,3.19,6.42,5.62.72,1.08,1.72,3.04,1.6,3.15-.04.04-.76.26-1.58.47l-1.5.4-.39-.77c-1.27-2.53-3.38-4.65-5.88-5.9-.9-.45-1.83-.8-1.97-.75-.06.02-.14.23-.17.47-.04.23-.13.85-.23,1.36-.09.52-.19,1.09-.21,1.26l-.06.33.76.36c2.6,1.21,4.48,3.45,5.28,6.28.23.82.26,1.01.26,2.45s-.03,1.63-.26,2.45c-.47,1.67-1.31,3.15-2.46,4.31-.66.67-1.63,1.39-2.34,1.75-.24.12-.43.27-.43.33,0,.15.86,3.27.92,3.32.08.08,1.59-.72,2.47-1.31,1.11-.74,2.64-2.27,3.38-3.37,1.03-1.55,1.68-3.04,2.08-4.82.17-.78.21-1.18.21-2.64s.02-1.72.13-1.74c1.09-.31,2.97-.77,3-.75.06.07.16,1.56.16,2.47,0,1.23-.12,2.43-.31,3.29-.09.41-.16.76-.15.77,0,.02.76.28,1.66.61,1.25.45,1.66.57,1.71.48.14-.24.53-2.59.62-3.85.2-2.8-.29-6.03-1.31-8.56-2.89-7.15-9.2-11.9-16.8-12.64-1.52-.15-2.33-.15-3.83,0Z"/>
      <path class="cls-2" d="m30.46,14.9c-.65.06-2.1.41-2.84.67-3.65,1.28-6.65,4.21-8.01,7.82-1.05,2.79-1.09,6.29-.09,9.02l.22.61-.82.47c-1.64.95-1.93,1.12-2,1.12-.08,0-.47-.99-.72-1.83-.29-1-.59-2.44-.62-3.1,0-.04-.81-.06-1.79-.06h-1.78l.05.51c.47,4.6,2.59,8.95,5.97,12.23,7.93,7.69,20.58,7.5,28.31-.42,1.02-1.05,2.02-2.34,2.74-3.52.62-1.02,1.09-1.99,1.02-2.06-.04-.04-.46-.2-.95-.38-.49-.18-1.15-.42-1.47-.53-.32-.12-.64-.24-.71-.27-.1-.04-.22.12-.47.6-1.5,2.92-4.3,5.57-7.46,7.09-2.7,1.28-5.45,1.76-8.7,1.5-3.18-.25-6.73-1.82-9.31-4.1-.73-.65-1.79-1.79-2.19-2.36-.13-.2-.21-.14,1.86-1.34l.78-.45,1.1,1.09c1.96,1.97,4.07,3.12,6.76,3.73.79.17,1.18.2,2.64.2.94,0,1.73-.03,1.76-.05.04-.03-.11-.65-.3-1.38-.2-.73-.4-1.49-.45-1.69l-.1-.36-1.26-.05c-2.37-.1-4.25-.85-6.02-2.39-.29-.26-.62-.58-.72-.7l-.18-.23,1.97-1.14,1.98-1.13,2.07,2.19,2.38-.49,2.38-.48,3.21-3.2-.29-1.05c-.18-.67-.32-1.04-.39-1.04s-.79.18-1.61.4l-1.5.41-.62.61c-.68.66-.58.63-2.05.77l-.53.05-.64-.63c-.36-.34-.65-.64-.65-.66,0-.03-.1-.4-.21-.85l-.21-.81.58-.77c.32-.44.6-.79.62-.81,0-.02.39-.13.86-.25l.83-.21,1.13-1.13c.63-.62,1.14-1.18,1.14-1.23s-.34-.43-.75-.84l-.75-.74-2.17.59-2.18.59-.45.46c-.24.26-.75.81-1.11,1.23-.37.41-.83.93-1.03,1.16-.76.85-.73.6-.26,2.22.22.79.4,1.46.38,1.47-.04.04-1.89,1.11-3.03,1.75-.43.24-.81.44-.86.44-.04,0-.18-.37-.29-.83-.19-.7-.21-1.02-.21-2.33,0-1.38.03-1.59.26-2.4.48-1.71,1.31-3.14,2.51-4.34,1.64-1.64,3.8-2.64,5.99-2.8.93-.07.86,0,1.01-.97.05-.35.13-.78.18-.98.04-.2.1-.52.12-.71.04-.2.08-.49.11-.65l.05-.28-.92.02c-.51,0-1.07.03-1.24.04Z"/>
    </g>
    <rect class="cls-5" x="1.05" y="1.05" width="161.9" height="53.9" rx="6.95" ry="6.95"/>
    <text class="cls-3" transform="translate(62.91 24.5)"><tspan x="0" y="0">Available on</tspan></text>
    <text class="cls-4" transform="translate(61.4 43.5)"><tspan x="0" y="0">Modrinth</tspan></text>
  </g>
</svg>