<?xml version="1.0" encoding="UTF-8"?>
<svg id="Layer_2" data-name="Layer 2" xmlns="http://www.w3.org/2000/svg" xmlns:xlink="http://www.w3.org/1999/xlink" viewBox="0 0 192.03 56">
  <defs>
    <style>
      .cls-1 {
        fill: #3ab55c;
      }

      .cls-1, .cls-2, .cls-3, .cls-4, .cls-5, .cls-6, .cls-7, .cls-8, .cls-9, .cls-10, .cls-11, .cls-12, .cls-13, .cls-14, .cls-15, .cls-16, .cls-17, .cls-18, .cls-19, .cls-20, .cls-21, .cls-22, .cls-23, .cls-24, .cls-25, .cls-26, .cls-27, .cls-28, .cls-29, .cls-30, .cls-31, .cls-32, .cls-33, .cls-34, .cls-35 {
        stroke-width: 0px;
      }

      .cls-2 {
        fill: #4daa6d;
      }

      .cls-3 {
        fill: #5db78f;
      }

      .cls-4 {
        fill: url(#linear-gradient);
      }

      .cls-5 {
        fill: #5aac7c;
      }

      .cls-36 {
        letter-spacing: -.02em;
      }

      .cls-6 {
        fill: #0b9246;
      }

      .cls-7 {
        fill: #5fb68e;
      }

      .cls-8 {
        fill: #4cb775;
      }

      .cls-37 {
        letter-spacing: -.04em;
      }

      .cls-9 {
        fill: #0d9146;
      }

      .cls-38 {
        letter-spacing: -.04em;
      }

      .cls-10 {
        fill: #60bc91;
      }

      .cls-11 {
        fill: #2aa14c;
      }

      .cls-12 {
        fill: #3da866;
      }

      .cls-13 {
        fill: #5ebf94;
      }

      .cls-14 {
        fill: #47b277;
      }

      .cls-15 {
        fill: #1c9548;
      }

      .cls-39 {
        font-family: NotoSans-ExtraBold, 'Noto Sans';
        font-variation-settings: 'wght' 800, 'wdth' 100;
        font-weight: 700;
      }

      .cls-39, .cls-40 {
        font-size: 17px;
      }

      .cls-39, .cls-22 {
        fill: #26ab50;
      }

      .cls-16 {
        fill: #1fa64b;
      }

      .cls-17 {
        fill: #4daf66;
      }

      .cls-40 {
        fill: #e9e8e8;
        font-family: NotoSans-Medium, 'Noto Sans';
        font-variation-settings: 'wght' 500, 'wdth' 100;
        font-weight: 500;
      }

      .cls-18 {
        fill: #169c49;
      }

      .cls-19 {
        fill: #67c1a2;
      }

      .cls-20 {
        fill: #68b996;
      }

      .cls-41 {
        letter-spacing: -.06em;
      }

      .cls-21 {
        fill: #23ae4c;
      }

      .cls-23 {
        fill: #53b581;
      }

      .cls-24 {
        fill: #3cb16c;
      }

      .cls-25 {
        fill: #43b262;
      }

      .cls-26 {
        fill: #1b9748;
      }

      .cls-27 {
        fill: #4dba79;
      }

      .cls-28 {
        fill: #8ea08d;
      }

      .cls-42 {
        fill: none;
        stroke: rgba(255, 255, 255, .15);
        stroke-width: 2.1px;
      }

      .cls-29 {
        fill: #68a07a;
      }

      .cls-30 {
        fill: #40b269;
      }

      .cls-31 {
        fill: #2ea24f;
      }

      .cls-32 {
        fill: #1c9146;
      }

      .cls-33 {
        fill: #61b993;
      }

      .cls-34 {
        fill: #66c2a7;
      }

      .cls-35 {
        fill: #5cb587;
      }
    </style>
    <linearGradient id="linear-gradient" x1="96.01" y1="409.57" x2="96.01" y2="353.57" gradientTransform="translate(0 409.57) scale(1 -1)" gradientUnits="userSpaceOnUse">
      <stop offset="0" stop-color="#194f31"/>
      <stop offset="1" stop-color="#0f2515"/>
    </linearGradient>
  </defs>
  <g id="Layer_1-2" data-name="Layer 1">
    <path class="cls-4" d="m9.37,0h173.29c5.17,0,9.37,3.58,9.37,8v40c0,4.42-4.19,8-9.37,8H9.37c-5.17,0-9.37-3.58-9.37-8V8C0,3.58,4.19,0,9.37,0Z"/>
    <path class="cls-42" d="m9.37,1.05h173.29c4.49,0,8.14,3.11,8.14,6.95v40c0,3.84-3.64,6.95-8.14,6.95H9.37c-4.49,0-8.14-3.11-8.14-6.95V8C1.23,4.16,4.87,1.05,9.37,1.05Z"/>
    <text class="cls-40" transform="translate(62.91 24.5)"><tspan class="cls-38" x="0" y="0">Requi</tspan><tspan class="cls-41" x="42.7" y="0">r</tspan><tspan class="cls-38" x="48.86" y="0">es</tspan></text>
    <text class="cls-39" transform="translate(61.4 43.5)"><tspan class="cls-36" x="0" y="0">SmartB</tspan><tspan class="cls-37" x="61.64" y="0">r</tspan><tspan class="cls-36" x="68.8" y="0">ainLib</tspan></text>
    <g>
      <path class="cls-9" d="m42.84,33.78c.86-.85,1.55-1.8,1.98-2.95.07-.18.16-.51.44-.37.28.13.13.38.06.62-.21.78-.65,1.42-1.17,2.02-.2.23-.29.53-.32.85-.07.78-.11,1.57-.38,2.32-.04.11-.18.26-.03.37.11.09.21-.06.32-.09,1.36-.34,2.03-1.46,2.8-2.48.56-.73,1.22-1.38,1.71-2.18.21-.34.62-.47.92-.72.13-.11.32-.04.37.06.28.56.79.97.99,1.6.18.58.45,1.13.53,1.74.17,1.25-.4,2.22-1.14,3.16-.94,1.19-2.25,1.77-3.63,2.2-2.06.64-4.16,1.04-6.34,1.08-1.6.03-3.21.21-4.81.1-1.39-.09-2.76.07-4.14,0-.16,0-.38.11-.46-.09-.1-.22.13-.34.26-.45.65-.56,1.33-1.1,2.1-1.51.73-.39,1.47-.79,2.14-1.26.77-.54,1.2-1.4,1.71-2.16.66-.99,1.02-2.12,1.37-3.24.03-.11.03-.24.22-.3.09.38.18.75.25,1.13.26,1.25.24,2.52.21,3.78-.01.4.1.46.49.46,1.28-.02,2.21-.52,2.79-1.7.19-.4.58-.7.73-1.15.2-.08.36-.3.12-.36-.5-.14-.08-.33-.09-.49Z"/>
      <path class="cls-6" d="m27.26,39.69c-1.19.82-2.48,1.33-4.01,1.27.25.42.61.56.95.72.33.15.7.21,1.03.39.47.24.92-.09,1.32-.24,1.08-.4,2.04-1.06,3.04-1.64.93-.54,1.6-1.31,2.33-2.03.05-.05.07-.23.19-.15.07.05.14.17.04.31-.54.83-1.04,1.69-1.8,2.35-.34.29-.65.6-.92.96-.61.82-1.55,1.15-2.38,1.65-.85.51-1.78.74-2.76.79-.32.02-.65-.07-.96-.13-1.14-.24-2.28-.39-3.45-.32-1.87.11-3.15-.96-4.27-2.26-.75-.87-1.52-1.75-2.06-2.79-.36-.69-.68-1.4-.81-2.17.01-.07.03-.13.04-.2.17.1.22.25.17.43-.02.08-.05.22.04.21.4-.03.27.28.34.53.28-.55.78-.76,1.27-.98.17-.08.16-.24.08-.35-.24-.31-.14-.65-.16-.98.17.12.02.37.19.49.19.9.86,1.54,1.28,2.32.35.65,1.12.73,1.63,1.17.13.11.22,0,.22-.15,0-.05,0-.1,0-.15-.09-1.27.09-2.53.21-3.78.03-.35-.02-.64-.28-.88.13-.04.18.06.26.12.56.44.69.41,1.13-.11.19-.23.44-.42.66-.63.13-.12.21-.03.3.05.11.1.21.28.38.2.2-.09.1-.31.1-.47.01-.22.03-.44-.13-.64-.09-.11-.12-.31,0-.38.6-.33.34-.96.52-1.44.22-.58.34-1.22.55-1.82.08.48-.13.91-.27,1.33-.31.98-.37,2-.55,3-.02.1-.07.26.07.32.13.06.2-.09.3-.15.3-.19.6-.4.91-.57.81-.45,1.23-1.17,1.51-2.03.19-.57.53-1.06,1-1.46.22.01.31-.19.47-.28.19-.1.36-.18.36.16-.72.77-.94,1.8-1.36,2.76.23-.12.46-.25.7-.35.15-.06.36-.13.47.04.09.14-.03.28-.15.4-.37.39-.79.71-1.25.96-.14.07-.27.14-.34.29.86.41.87.43.66,1.1-1.04-.81-1.97-.27-2.9.25-.19.1-.3.26-.3.5.04,1.33.37,2.59.91,3.81.11.26.24.36.55.18,1.38-.78,2.45-1.86,3.23-3.22.33-.58.36-1.27.53-1.91.31-1.14.78-2.2,1.36-3.22.09-.15.21-.33.4-.19.17.12.08.3,0,.46-.42.76-.86,1.53-1,2.4-.17,1.08-.5,2.12-.92,3.11-.47,1.1-1.23,2.04-2.09,2.88-.16.16-.34.32-.55.52,1.16.18,2.16-.05,3.1-.55.32-.04.69.13.93-.23,0,0,0,0,0,0,.09.02.2-.12.28,0,.07.11-.06.17-.12.25-.05.07-.11.13-.16.2Z"/>
      <path class="cls-26" d="m35.2,22.04c.18.25.16.55.26.83.2.56.4,1.09.84,1.55.49.52.7,1.24.85,1.95.02.12.04.25-.1.31-.16.08-.23-.03-.32-.15-.12-.16-.21-.35-.45-.45-.08,1.09-.43,2.07-.91,3-.08.15-.15.43-.37.34-.25-.1-.13-.35-.07-.55.43-1.38.54-2.77.2-4.19-.2-.83-.43-1.64-.65-2.46-.02-.07-.08-.17-.14-.19-.14-.04-.14.11-.2.18-.29.37-.47.87-1.09.84-.14,0-.27.24-.35.41-.44.9-.79,1.83-.85,2.82-.05.97-.26,1.93-.26,2.9,0,.83-.23,1.56-.73,2.24-.43.58-.83,1.21-.72,2.01.04.27-.17.48-.2.74-.01.09-.14.16-.2.13-.53-.32-.7.24-1.03.41-.15.08-.26.27-.45.15-.22-.15.01-.32.06-.44.39-.94.78-1.87,1.47-2.66.6-.69.8-1.57.95-2.49.14-.9.03-1.76-.03-2.64-.03-.5-.15-.55-.6-.28-.78.45-1.6.59-2.47.28-.16-.06-.29-.18-.37-.34-.03-.05-.03-.14,0-.19.05-.08.13-.09.22-.04.59.33,1.11.08,1.63-.2.22-.12.46-.23.68-.35.75-.41,1.34-.97,1.54-1.85.04-.19.21-.36.26-.55.09-.44.18-.86.02-1.35-.19-.58.06-1.21.23-1.83.05.89.61,1.65.61,2.58.34-.26.65-.6,1.06-.77.38-.09.67-.3.88-.63.05-.08.14-.17.25-.14.11.03.13.12.13.24.02.33.25.57.43.82Z"/>
      <path class="cls-18" d="m21.51,28.94c-.21.6-.33,1.23-.55,1.82-.18.47.08,1.11-.52,1.44-.11.06-.09.27,0,.38.16.19.14.42.13.64,0,.16.09.37-.1.47-.17.08-.27-.1-.38-.2-.09-.08-.17-.18-.3-.05-.22.21-.47.4-.66.63-.43.52-.57.55-1.13.11-.08-.06-.14-.16-.26-.12-.22,0-.44,0-.66.03-.31.04-.47-.1-.48-.38-.01-.34.26-.23.45-.24.1,0,.2-.02.3-.03-.23-.72-.75-1.33-.74-2.11,0-.15-.17-.38.07-.45.23-.06.27.21.38.35.05.06-.02.17.1.22.06-.94.11-1.87.2-2.8.01-.12-.09-.36.15-.38.24-.01.15.21.18.35.22.81.16,1.62.09,2.45-.05.64.31,1.19.56,1.79.37-1.49.79-2.95,1.74-4.19.31-.29.24-.73.44-1.09.2-.36.33-.77.21-1.27-.15-.67-.11-.83.47-.85.32.27.57.17.8-.13.18-.24.26-.55.56-.68-.09.25-.14.51-.27.73-.06.12-.21.19-.08.34.07.08.14.17.25.14.16-.04.28-.12.27-.32,0-.17.06-.31.19-.39.45-.28.9-.55,1.36-.83-.25.36-.51.71-.76,1.07-.07.11-.23.22-.14.35.08.13.26.08.38.05.51-.11,1.02-.21,1.55-.2.44,0,.82.22,1.26.21.05,0,.13.06.15.11.05.09-.03.16-.09.21-.16.13-.35.1-.54.11-.76.04-1.55-.11-2.2.55-.21.22-.64.29-.94.47-.5.31-.93.67-1.15,1.25-.06.16-.12.37-.32.45Z"/>
      <path class="cls-34" d="m40.75,17.42c.05-.09.12-.17.15-.27.07-.24.5-.32.31-.68-.24-.46-.49-.92-1.04-1.07-.47-.13-.96-.22-1.44-.33-.25-.06-.46.09-.69.13-.86.15-1.75.2-2.57.55-.11.05-.26.09-.33-.02-.09-.14.04-.25.15-.34.91-.7,1.9-1.21,3.02-1.51.88-.24,1.75-.4,2.66-.35.17,0,.44-.11.46.17.02.28-.28.3-.46.29-.46-.01-.78.28-1.16.49,1.14.11,1.79,1.09,2.75,1.5.56.24,1.05.63,1.53,1.02.71.58,1.05,1.38,1.23,2.25.03.13.05.29-.13.35-.2.06-.22-.13-.27-.24-.19-.38-.29-.79-.48-1.17-.36-.68-.97-1.03-1.61-1.35-.41-.2-.53.15-.6.44-.06.27-.09.54-.19.79,0-.15-.02-.31-.02-.46.01-.22-.11-.36-.26-.47-.19-.14-.32.02-.44.13-.17.17-.35.19-.56.15Z"/>
      <path class="cls-21" d="m51.72,31.45c-.11.3-.29.21-.41.03-.56-.87-1.26-1.6-2.04-2.26-.12-.1-.16-.25-.1-.42.2-.58.37-1.18.44-1.79.23-.04.24-.21.24-.39.21-.06.22-.45.43-.38.43.14.94-.08,1.32.27.07.61.19,1.22.19,1.84,0,1.04.09,2.08-.06,3.12Z"/>
      <path class="cls-32" d="m29.26,36.3c2.3-1.27,4.47-2.72,6.33-4.61.19-.2.39-.39.51-.64.15-.31.34-.28.57-.11.11.08.2.22.32.25.57.11.34.33.07.51-.35.23-.65.48-.81.89-.04.12-.17.22-.28.29-1.16.65-1.68,1.77-2.2,2.91-.1.23-.18.48-.42.62-.11.06-.23.11-.33.03-.09-.07-.06-.2,0-.28.19-.24.07-.57.25-.82.08-.11.16-.35,0-.47-.12-.08-.29.03-.42.11-.72.42-1.45.82-2.21,1.18-.37.17-.77.22-1.15.34-.1-.04-.19-.08-.22-.2Z"/>
      <path class="cls-22" d="m24.3,24.31c-.45.28-.91.55-1.36.83-.14.09-.2.23-.19.39.01.19-.11.28-.27.32-.12.03-.19-.06-.25-.14-.13-.15.02-.22.08-.34.12-.23.18-.49.27-.73.65-.94,1.37-1.82,2.13-2.68.29-.49.85-.66,1.24-1.03.13-.05.26-.07.37-.14.14-.09.25-.25.39-.32.16-.08.39-.13.52.04.12.15-.06.27-.16.38-.12.14-.27.26-.37.42-.1.15-.05.21.16.24.92-.29,1.83-.33,2.74,0,.18.06.26.17.19.35-.07.16-.24.17-.35.1-.73-.44-1.42-.07-2.12.07-.05,0-.09.08-.13.08-1.28-.08-1.81.93-2.48,1.72-.13.15-.24.33-.43.43Z"/>
      <path class="cls-15" d="m44.4,29.18c-1.15,1.68-2.73,2.87-4.49,3.83-.12.07-.26.15-.35-.02-.09-.18-.06-.37.1-.51.32-.28.63-.57.97-.83.64-.49.93-1.18,1.11-1.91.23-.91.31-1.84-.17-2.72.05-.11-.14-.41.21-.26.21.1.31-.02.41-.16.45.75.63,1.58.74,2.46.37-.12.4-.53.67-.7.16.39-.24.47-.38.69-.07.11-.24.22-.13.34.14.16.24-.03.32-.12.23-.25.44-.48.77-.13.04.04.16-.05.23.03Z"/>
      <path class="cls-19" d="m29.43,13.51c.54-.26,1.13-.35,1.72-.4,1.35-.1,2.68.22,4.02.26.57.02,1.21.1,1.78.34.07.03.19.02.18.13,0,.13-.11.17-.22.17-.95.01-1.86.28-2.86.1-1.14-.2-2.38-.06-3.5.32-.66.23-1.39.6-1.73,1.35-.06.14-.13.43-.39.27-.23-.14-.21-.4-.05-.58.21-.25.45-.47.69-.69.17-.14.09-.18-.05-.22.12-.27.34-.21.56-.19.31.01.57-.22.69-.42.09-.15-.3-.23-.46-.37-.09-.07-.26-.05-.39-.07Z"/>
      <path class="cls-13" d="m49.21,21.16c-.31-.64-.5-1.33-.85-1.95-.63-1.12-1.4-2.14-2.13-3.19.02-.36-.41-.44-.47-.77.11.01.2.02.3.03,1.05.48,1.8,1.3,2.54,2.17.95,1.12,1.56,2.4,2.09,3.74.02.04,0,.1,0,.15-.35-.08-.45-.44-.71-.63-.12-.09-.25-.26-.37-.06-.12.19-.35.28-.4.51Z"/>
      <path class="cls-8" d="m14.61,24.76c-.06.1-.13.2-.17.31-.07.17-.15.43-.36.32-.15-.08-.07-.33,0-.52.46-1.15,1.43-1.8,2.42-2.4.53-.32.83-.79,1.13-1.29.35-.58.57-1.25,1.18-1.64.13-.08.26-.23.4-.08.12.13.02.28-.07.41-.69.97-.77,2.05-.54,3.18.04.19-.03.33-.07.49-.04.19-.16.2-.24.09-.13-.2-.36-.26-.5-.43-.38-.46-.73-.42-1.1.06-.29.38-.49.82-.84,1.15-.03-.18-.11-.1-.19-.04-.12.08-.24.18-.4.07.04-.25.34-.39.32-.78-.4.38-.8.63-.98,1.09Z"/>
      <path class="cls-17" d="m51.72,31.45c.16-1.04.07-2.08.06-3.12,0-.61-.12-1.22-.19-1.84.12-.39-.23-.7-.17-1.06.09-.51-.22-.69-.6-.76-.39-.07-.72.04-.89.49-.18.48-.06.97-.09,1.45,0,.18,0,.36-.24.39,0-.76,0-1.52,0-2.29-.05-.02-.1-.04-.14-.06-.42,1.18-1.18,2.12-2.05,2.98-.13-.03-.28-.04-.18-.25.06-.13.16-.26.14-.42.33-1.05.81-2.04,1.25-3.04.06.06.12.11.18.17.39-.43.9-.06,1.33-.2.42-.14,1.13.16,1.12-.69.01.14.03.28.04.42-.04.19-.08.39-.11.58-.02.1,0,.22.11.24.04,0,.11-.14.16-.21.36,1.84.51,3.69.45,5.56-.01.3.06.61.08.92.01.27,0,.55-.26.73Z"/>
      <path class="cls-27" d="m51.25,23.22c.01.84-.7.55-1.12.69-.43.14-.94-.23-1.33.2-.06-.06-.12-.11-.18-.17.1-.67.37-1.31.47-1.99.04-.26.12-.52.11-.79.04-.24.28-.32.4-.51.12-.2.25-.03.37.06.25.19.36.55.71.63.3.59.4,1.25.57,1.88Z"/>
      <path class="cls-10" d="m29.43,13.51c.13.02.3,0,.39.07.16.13.56.22.46.37-.12.2-.38.43-.69.42-.22-.01-.45-.08-.56.19-.82.12-1.62.35-2.41.6-.29.1-.59.19-.85.33-1.1.62-2.33.97-3.4,1.67-.14.09-.32.22-.53.11,0-.22.17-.27.3-.37,1.44-1.06,3.03-1.84,4.61-2.65.83-.43,1.77-.54,2.67-.75Z"/>
      <path class="cls-11" d="m44.4,29.18c-.07-.08-.19.01-.23-.03-.33-.36-.54-.12-.77.13-.08.08-.18.28-.32.12-.11-.13.06-.23.13-.34.14-.22.55-.3.38-.69.5-.9.77-1.86.8-2.9.41.1.25-.23.29-.4.04-.2.06-.44.3-.48.23-.03.19.23.27.37.06.12.11.25.16.37-.15.27-.19.55-.19.86-.02,1.06-.22,2.08-.83,2.98Z"/>
      <path class="cls-31" d="m42.2,26.6c-.1.14-.19.25-.41.16-.34-.15-.16.16-.21.26-.33-.46-.77-.81-1.2-1.18-.97-.83-1.89-1.74-2.34-2.99-.03-.1-.07-.2-.07-.3,0-.13-.02-.29.14-.35.18-.07.27.06.36.2.14.2.15.45.28.66.49.77,1.23,1.28,1.85,1.91.53.54,1.2.95,1.61,1.62Z"/>
      <path class="cls-7" d="m23.23,18.33c.53.03,1.07.16,1.51-.26.19-.18.4-.12.52.09.13.23-.06.34-.23.42-.72.36-1.52.38-2.29.48-.36.05-.55.17-.71.46-.06.12-.11.36-.31.26-.21-.11-.1-.33-.03-.5.4-1,1.26-1.49,2.19-1.85.56-.22,1.06-.53,1.58-.8.09-.05.17-.11.28-.11.12,0,.26-.03.3.12.04.12-.07.19-.16.24-.62.35-1.2.78-1.91.95-.31.07-.55.23-.75.5Z"/>
      <path class="cls-25" d="m15.26,24.45c.16.11.28,0,.4-.07.09-.06.16-.14.19.04-.58,1.06-.55,2.12-.06,3.2.06.13.07.26.07.4-.07.17.19.33,0,.53-.2-.13-.21-.42-.43-.52-.16-.14-.18-.36-.3-.59-.28.5,0,1.31-.92,1.37,0-1.44.24-2.82.9-4.12.05-.08.1-.16.15-.24Z"/>
      <path class="cls-23" d="m31.09,19.89c-.18.22-.22.48-.2.8-.29-.16-.18-.36-.2-.53-.06-.5.09-1.02-.15-1.52-.16-.34-.3-.47-.63-.18-.45.39-.92.76-1.38,1.14.07-.22.27-.34.41-.49.25-.27.28-.46-.13-.56.22-.23.54-.31.85-.53-.72-.07-1.28.24-1.85.43-.25.08-.62.25-.67.06-.08-.29.31-.44.55-.53.79-.32,1.6-.54,2.46-.45.34.04.58-.1.81-.32.37.21.16.37-.05.51-.15.1-.34.26-.09.37.33.15.27.39.27.63,0,.39,0,.78,0,1.17Z"/>
      <path class="cls-30" d="m45.42,25.34c-.05-.12-.1-.25-.16-.37-.07-.14-.04-.4-.27-.37-.23.03-.25.28-.3.48-.04.17.12.49-.29.4-.08-.74.03-1.49-.2-2.23-.08-.26-.19-.5-.3-.74-.06-.12-.17-.22-.22-.34-.1-.24-.28-.57-.06-.74.21-.16.33.21.49.34.42.34.59.83.71,1.33.05.19.07.39.22.59.32-.34.59-.69.8-1.08.17.2.21.44.19.69-.32.43-.44.92-.41,1.46.01.21,0,.44-.19.6Z"/>
      <path class="cls-33" d="m40.75,17.42c.21.04.4.02.56-.15.11-.11.25-.27.44-.13.15.11.27.25.26.47,0,.15,0,.31.02.46.02.18,0,.36-.13.5-.16-.14-.32-.27-.49-.41,0-.12.16-.24-.04-.4-.11.47-.68.25-.89.61-.37.28-.78.43-1.26.49-.67.09-1.16.55-1.58,1.06-.13.15-.23.43-.46.23-.2-.17-.02-.36.11-.53.57-.77,1.43-1.09,2.24-1.47.43-.2.87-.38,1.21-.72Z"/>
      <path class="cls-14" d="m35.2,22.04c-.18-.25-.41-.49-.43-.82,0-.12-.03-.21-.13-.24-.11-.03-.2.05-.25.14-.21.33-.5.54-.88.63.5-.45.57-1.06.59-1.67.03-.67.08-1.32.41-1.92.08-.14.18-.22.33-.17.17.05.17.21.13.35-.31,1.2-.24,2.37.24,3.51.02.06,0,.13,0,.2Z"/>
      <path class="cls-24" d="m28.81,18.56c.41.1.39.3.13.56-.15.16-.35.27-.41.49-.48.49-.96.98-1.43,1.48-.12.12-.34.21-.24.46-.21-.04-.26-.09-.16-.24.1-.15.25-.28.37-.42.1-.11.28-.23.16-.38-.13-.16-.35-.11-.52-.04-.15.07-.25.23-.39.32-.11.07-.25.1-.37.14.03-.08.06-.16.09-.23.94-.7,1.76-1.55,2.78-2.14Z"/>
      <path class="cls-3" d="m41.42,18.16c.16.14.32.27.49.41-.18.41-.44.76-.78,1.05-.55.47-.97,1.03-1.3,1.67-.04.07-.08.17-.18.13-.05-.02-.09-.1-.09-.16-.02-.2,0-.39.1-.59.43-.8,1.05-1.46,1.55-2.2.14-.05.19-.16.22-.3Z"/>
      <path class="cls-35" d="m46.02,23.28c.01-.25-.03-.49-.19-.69-.01-.38.2-.68.35-1,.21-.47.14-1.01.38-1.47.05-.1.05-.26.21-.24.13.02.16.16.19.28.17.76-.08,1.45-.38,2.11-.15.34-.23.75-.55,1Z"/>
      <path class="cls-2" d="m12.77,36.18c-.01.07-.03.13-.04.2-.3-.37-.24-.85-.31-1.26-.19-1.15-.38-2.31-.17-3.5.17-.97.17-1.96.52-2.9.03-.08.04-.16.22-.21.15,1.2.22,2.41.5,3.66.23-.4-.01-.84.29-1.14.02.02.03.03.05.05-.08.37.04.76-.1,1.12-.03.09-.01.23-.15.24-.16.01-.19-.12-.21-.24-.07-.42-.21-.82-.22-1.26-.02-.63-.25-1.24-.2-1.96-.23.23-.23.42-.3.59-.3.82-.1,1.7-.3,2.53-.13.52-.11,1.04,0,1.57.16.83.19,1.69.43,2.51Z"/>
      <path class="cls-2" d="m14.7,35.54c-.18-.12-.02-.37-.19-.49-.26-1.05-.36-2.11-.34-3.19,0-.29.1-.68-.35-.79-.02-.02-.03-.03-.05-.05,0-.32.03-.65.03-.97,0-.24.05-.51.31-.5.26,0,.16.29.16.46,0,.7.02,1.4,0,2.1-.03.98.11,1.93.39,2.87.05.18.03.37.05.56Z"/>
      <path class="cls-20" d="m31.09,19.89c0-.39,0-.78,0-1.17,0-.24.06-.48-.27-.63-.25-.11-.05-.26.09-.37.21-.15.42-.31.05-.51.46-.2.77-.69,1.33-.71.14-.03.28-.08.43-.1.2-.02.17.09.1.21-.51.34-1.01.69-1.53,1.02-.18.12-.24.18-.18.46.14.58.16,1.2-.03,1.79Z"/>
      <path class="cls-12" d="m21.21,25.45c-.58.01-.62.18-.47.85.12.51,0,.91-.21,1.27-.2.35-.14.79-.44,1.09-.11-.5.27-.86.4-1.29.25-.84.24-1.63-.27-2.38-.06-.08-.13-.16-.16-.25-.04-.15-.07-.34.08-.42.15-.09.23.1.31.2.26.31.52.63.77.94Z"/>
      <path class="cls-5" d="m26.03,20.7c-.03.08-.06.16-.09.23-.4.36-.95.54-1.24,1.03.01-.5-.14-.94-.5-1.29-.11-.11-.18-.24-.09-.36.12-.17.25,0,.35.06.2.12.45.24.56.44.25.46.48.38.77.07.07-.07.16-.12.25-.18Z"/>
      <path class="cls-29" d="m15.43,28.02c.22.1.23.39.43.52.19-.21-.07-.36,0-.53.12.23.53.48.16.71-.33.2-.36-.28-.53-.46-.05-.05-.04-.16-.06-.24Z"/>
      <path class="cls-34" d="m41.42,18.16c-.03.13-.08.25-.22.3-.19-.45-.47-.11-.71-.08.21-.36.77-.14.89-.61.2.16.05.28.04.4Z"/>
      <path class="cls-27" d="m51.46,24.25c-.05.08-.12.22-.16.21-.11-.02-.13-.14-.11-.24.03-.2.07-.39.11-.58.1.19.21.38.17.61Z"/>
      <path class="cls-28" d="m47.37,26.98c.02.16-.08.29-.14.42-.1.21.05.22.18.25-.12.07-.24.26-.39.1-.14-.14,0-.27.08-.4.09-.12.11-.29.26-.37Z"/>
      <path class="cls-16" d="m13.82,31.07c.45.11.36.5.35.79-.03,1.08.08,2.14.34,3.19.03.33-.08.68.16.98.08.1.09.27-.08.35-.49.23-.99.43-1.27.98-.07-.24.06-.56-.34-.53-.09,0-.06-.13-.04-.21.05-.19,0-.34-.17-.43-.24-.82-.27-1.68-.43-2.51-.1-.53-.12-1.05,0-1.57.2-.83,0-1.71.3-2.53.06-.17.07-.36.3-.59-.05.72.18,1.33.2,1.96.01.44.15.84.22,1.26.02.12.05.25.21.24.13-.01.11-.15.15-.24.13-.36.02-.75.1-1.12Z"/>
      <path class="cls-1" d="m49.84,26.61c.03-.48-.08-.97.09-1.45.16-.45.49-.56.89-.49.39.07.69.25.6.76-.06.36.29.68.17,1.06-.38-.35-.88-.13-1.32-.27-.21-.07-.22.32-.43.38Z"/>
    </g>
  </g>
</svg>