<?xml version="1.0" encoding="UTF-8"?>
<svg id="Layer_2" data-name="Layer 2" xmlns="http://www.w3.org/2000/svg" xmlns:xlink="http://www.w3.org/1999/xlink" viewBox="0 0 164 56">
  <defs>
    <style>
      .cls-1 {
        fill: url(#linear-gradient);
      }

      .cls-1, .cls-2, .cls-3, .cls-4, .cls-5, .cls-6, .cls-7, .cls-8 {
        stroke-width: 0px;
      }

      .cls-2 {
        fill: #c6bca6;
      }

      .cls-9 {
        fill: #c5bca5;
        font-family: NotoSans-ExtraBold, 'Noto Sans';
        font-variation-settings: 'wght' 800, 'wdth' 100;
        font-weight: 700;
        letter-spacing: -.02em;
      }

      .cls-9, .cls-10 {
        font-size: 17px;
      }

      .cls-3 {
        fill: #39352b;
      }

      .cls-4 {
        fill: #9a927e;
      }

      .cls-11 {
        letter-spacing: -.04em;
      }

      .cls-10 {
        fill: #e9e8e8;
        font-family: NotoSans-Medium, 'Noto Sans';
        font-variation-settings: 'wght' 500, 'wdth' 100;
        font-weight: 500;
      }

      .cls-5 {
        fill: #aea795;
      }

      .cls-6 {
        fill: #dbd0b5;
      }

      .cls-12 {
        letter-spacing: -.06em;
      }

      .cls-7 {
        fill: #bcb39c;
      }

      .cls-13 {
        fill: none;
        stroke: rgba(255, 255, 255, .15);
        stroke-width: 2.1px;
      }

      .cls-8 {
        fill: #817b6e;
      }
    </style>
    <linearGradient id="linear-gradient" x1="82" y1="666.35" x2="82" y2="610.35" gradientTransform="translate(0 666.35) scale(1 -1)" gradientUnits="userSpaceOnUse">
      <stop offset="0" stop-color="#302c23"/>
      <stop offset="1" stop-color="#030000"/>
    </linearGradient>
  </defs>
  <g id="Layer_1-2" data-name="Layer 1">
    <rect class="cls-1" width="164" height="56" rx="8" ry="8"/>
    <rect class="cls-13" x="1.05" y="1.05" width="161.9" height="53.9" rx="6.95" ry="6.95"/>
    <text class="cls-10" transform="translate(62.91 24.5)"><tspan class="cls-11" x="0" y="0">Requi</tspan><tspan class="cls-12" x="42.7" y="0">r</tspan><tspan class="cls-11" x="48.86" y="0">es</tspan></text>
    <text class="cls-9" transform="translate(61.4 43.5)"><tspan x="0" y="0">Fabric API</tspan></text>
    <g>
      <path class="cls-3" d="m33.85,39.45c0,1.78,0,3.55.01,5.33,0,.32-.07.43-.41.42-.71-.03-1.41,0-2.12-.01-.27,0-.36.07-.35.35.02.73,0,1.45.01,2.18,0,.28-.08.35-.35.35-1.68-.01-3.36-.01-5.04,0-.28,0-.35-.09-.35-.36.02-.84,0-1.68.01-2.52.03-.02.05-.05.08-.07.63-.2,1.28-.07,1.93-.1.63-.03.67-.06.68-.7,0-.48,0-.95,0-1.43,0-.21.01-.42.16-.59.36-.24.77-.14,1.16-.15.28-.01.57,0,.85,0,.64-.01.65-.05.69-.68.04-.67-.15-1.36.15-2.02.24-.2.54-.18.82-.17.66.03,1.33-.1,1.98.09.03.02.06.05.08.07Z"/>
      <path class="cls-3" d="m45.31,19.4c.82,0,1.64.01,2.46-.01.32,0,.43.07.42.41-.03.71,0,1.41-.01,2.12,0,.27.07.36.35.35.72-.02,1.45,0,2.18-.01.28,0,.35.08.35.35-.01,1.68-.01,3.36,0,5.04,0,.28-.08.36-.35.35-.84-.02-1.68,0-2.52,0-.02-.02-.05-.05-.07-.07-.2-.65-.07-1.31-.1-1.97-.03-.6-.05-.63-.66-.65-.66-.03-1.32.08-1.98-.08-.07-.03-.11-.08-.15-.15-.19-.93-.06-1.86-.08-2.8.03-.93-.11-1.87.09-2.79.02-.03.05-.05.07-.08Z"/>
      <path class="cls-3" d="m48.18,27.99c0,.8-.01,1.59,0,2.39,0,.34-.04.49-.45.49-1.76-.03-3.53-.01-5.29-.02-.02-.03-.05-.06-.07-.09-.08-.16-.1-.33-.1-.5,0-1.52,0-3.04,0-4.56,0-.21.02-.42.16-.59.96-.25,1.93-.3,2.89.02h0c.32.46.16.99.17,1.49.03,1.31-.1,1.17,1.2,1.2.5.01,1.03-.14,1.5.17h0Z"/>
      <path class="cls-3" d="m31,16.53c0-1.77,0-3.53-.01-5.3,0-.34.06-.46.43-.45.82.03,1.63.01,2.45.02.02.03.05.05.07.08.2.93.06,1.86.09,2.8.03.73,0,1.46,0,2.19,0,.22,0,.45-.14.65-.14.15-.33.18-.52.17-.76-.02-1.53.11-2.29-.09-.03-.02-.06-.05-.08-.07Z"/>
      <path class="cls-3" d="m16.67,36.58c-.82,0-1.64,0-2.45.01-.3,0-.43-.04-.43-.39.02-1.65.02-3.31,0-4.96,0-.35.13-.4.43-.39.82.02,1.63.01,2.45.01.02.03.05.05.07.08.2.92.06,1.85.09,2.77-.03.93.11,1.86-.09,2.78-.02.03-.05.05-.07.08Z"/>
      <path class="cls-3" d="m42.45,16.53c.83,0,1.67,0,2.5-.01.3,0,.39.08.38.38-.02.83-.01,1.67-.01,2.5,0,0,.01-.01.01-.01-.13.12-.29.18-.46.17-.8-.03-1.61.16-2.39-.13-.15-.14-.18-.33-.18-.52.02-.77-.11-1.54.09-2.3.02-.03.05-.06.07-.08Z"/>
      <path class="cls-3" d="m25.27,22.27c0-.83,0-1.67-.01-2.5,0-.3.08-.39.38-.38.83.02,1.67,0,2.5.01.02.03.05.06.07.08.14.94.2,1.87-.05,2.8-.93.27-1.87.19-2.81.06-.03-.02-.06-.05-.08-.07Z"/>
      <path class="cls-3" d="m22.4,25.13c0-.83,0-1.67-.01-2.5,0-.3.08-.39.38-.38.83.02,1.67.01,2.5.01,0,0-.01-.01-.01-.01.17.18.18.41.18.64,0,.59.02,1.17,0,1.76-.01.31-.1.59-.46.61-.83.04-1.66.13-2.48-.06-.03-.02-.06-.05-.09-.08Z"/>
      <path class="cls-3" d="m19.54,28c0-.83,0-1.67-.01-2.5,0-.3.08-.39.38-.38.83.02,1.67.01,2.5.01,0,0-.01-.01-.01-.01.17.18.18.41.18.64,0,.59.02,1.17,0,1.76-.01.31-.1.59-.46.61-.83.04-1.66.13-2.48-.06-.03-.02-.06-.05-.09-.08Z"/>
      <path class="cls-3" d="m33.86,10.8c0-.82.02-1.63-.01-2.45-.01-.37.11-.45.45-.43.66.03,1.33.03,1.99,0,.34-.01.46.06.45.43-.03.81-.01,1.63-.02,2.45-.03.02-.06.05-.08.07-.93.12-1.86.25-2.78-.08h.01Z"/>
      <path class="cls-3" d="m36.72,10.8c.83,0,1.67,0,2.5-.01.3,0,.39.08.38.38-.02.83-.01,1.67-.01,2.5-.03.02-.05.05-.08.07-.91.16-1.81.14-2.72,0-.07-.04-.12-.09-.15-.15-.08-.94-.25-1.88.1-2.8h-.01Z"/>
      <path class="cls-3" d="m16.67,30.86c0-.83,0-1.67-.01-2.5,0-.3.08-.39.38-.38.83.02,1.67.01,2.5.01,0,0-.01-.01-.01-.01.12.13.18.3.17.47-.04.81.16,1.63-.14,2.42-.97.24-1.94.29-2.9-.03,0,0,.01.01.01.01Z"/>
      <path class="cls-3" d="m42.45,30.85c0,.83,0,1.67.01,2.5,0,.3-.08.39-.38.38-.83-.02-1.67-.01-2.5-.01-.02-.03-.05-.06-.07-.09-.2-.82-.1-1.65-.06-2.48,0-.17.09-.37.28-.39.91-.09,1.83-.25,2.73.1h-.01Z"/>
      <path class="cls-3" d="m39.58,13.67c.83,0,1.67,0,2.5-.01.3,0,.39.08.38.38-.02.83-.01,1.67-.01,2.5,0,0,.01-.01.01-.01-.13.12-.3.18-.47.17-.8-.04-1.62.18-2.41-.15-.26-.96-.3-1.93.02-2.89h-.01Z"/>
      <path class="cls-3" d="m39.58,33.72c0,.83,0,1.67.01,2.5,0,.3-.08.39-.38.38-.83-.02-1.67-.01-2.5-.01-.02-.03-.05-.06-.07-.08-.12-.94-.24-1.88.08-2.81.96-.22,1.91-.29,2.87.04h-.01Z"/>
      <path class="cls-3" d="m19.54,39.45c-.83,0-1.67,0-2.5.01-.3,0-.39-.08-.38-.38.02-.83.01-1.67.01-2.5,0,0,0,0,0,0,.15-.14.34-.19.53-.17.77.04,1.56-.15,2.32.13.15.14.18.33.18.52-.02.77.11,1.54-.09,2.3-.02.03-.05.06-.07.08Z"/>
      <path class="cls-3" d="m36.72,36.58c0,.83,0,1.67.01,2.5,0,.3-.08.39-.38.38-.83-.02-1.67-.01-2.5-.01,0,0,.01.01.01.01-.26-.31-.18-.69-.19-1.04,0-.46-.02-.91.01-1.37.02-.25.06-.55.36-.58.9-.07,1.8-.24,2.68.12h-.01Z"/>
      <path class="cls-3" d="m22.4,42.31c-.83,0-1.67,0-2.5.01-.3,0-.39-.08-.38-.38.02-.83.01-1.67.01-2.5,0,0,0,0,0,0,.15-.14.34-.19.53-.17.77.04,1.56-.15,2.32.13.15.14.18.33.18.52-.02.77.11,1.54-.09,2.3-.02.03-.05.06-.07.08Z"/>
      <path class="cls-3" d="m28.13,19.4c0-.83,0-1.67-.01-2.5,0-.3.08-.39.38-.38.83.02,1.67.01,2.5.01,0,0-.01-.01-.01-.01.12.13.18.3.17.47-.04.81.16,1.63-.14,2.42-.97.24-1.94.29-2.9-.03h0Z"/>
      <path class="cls-3" d="m25.27,45.18c-.83,0-1.67,0-2.5.01-.3,0-.39-.08-.38-.38.02-.83.01-1.67.01-2.5,0,0,0,0,0,0,.17-.15.37-.19.58-.18.76.05,1.55-.17,2.3.16.26.96.29,1.93-.01,2.89h0Z"/>
      <path class="cls-7" d="m36.73,36.59c-.82,0-1.64.01-2.46-.01-.33,0-.43.09-.42.42.02.82.01,1.64.01,2.46-.95,0-1.91,0-2.86,0-.03-.03-.05-.05-.08-.08-.12-.21-.11-.44-.11-.67,0-1.43,0-2.86,0-4.29,0-.25-.01-.5.14-.72.26-.21.58-.16.88-.16.67,0,1.33-.02,2,.01.94.04,1.89-.13,2.83.1.03.03.05.05.08.08,0,.95,0,1.91,0,2.86Z"/>
      <path class="cls-7" d="m31,39.47c0,.82-.02,1.63,0,2.45,0,.33-.11.42-.42.41-.82-.02-1.63,0-2.45,0-.02-.03-.05-.05-.08-.08-.14-.95-.22-1.89.05-2.83.95-.22,1.91-.26,2.86.01l.04.04Z"/>
      <path class="cls-4" d="m25.26,45.19c0-.95,0-1.9,0-2.86.03-.03.05-.05.08-.08.94-.16,1.87-.21,2.81.04,0,0,0,.04,0,.04,0,.78-.03,1.56,0,2.33.02.44-.13.54-.55.53-.78-.03-1.55,0-2.33,0Z"/>
      <path class="cls-6" d="m42.46,19.39c.96,0,1.91,0,2.87,0,0,.96-.02,1.91-.02,2.87-.11.12-.26.17-.41.17-.81-.03-1.63.16-2.43-.13-.17-.18-.19-.41-.18-.64.03-.73-.11-1.47.1-2.19.03-.03.05-.05.08-.08Z"/>
      <path class="cls-7" d="m42.48,22.24c.94,0,1.88.01,2.82.02,0,.96.02,1.92.02,2.88-.96,0-1.92,0-2.87,0-.02-.03-.05-.05-.07-.08-.17-.88-.12-1.76-.03-2.65.03-.07.07-.12.13-.16Z"/>
      <path class="cls-8" d="m48.19,27.99c-.82,0-1.63-.01-2.45,0-.32,0-.43-.1-.42-.43.02-.82,0-1.63,0-2.45.82,0,1.63.01,2.45,0,.32,0,.43.1.43.42-.02.82,0,1.63,0,2.45Z"/>
      <path class="cls-7" d="m39.59,33.73h-2.86s-.04-.03-.04-.03c-.15-.17-.15-.38-.15-.59,0-1.51,0-3.03,0-4.54,0-.19.01-.38.11-.55.36-.32.8-.19,1.2-.2,1.78-.04,1.53.22,1.55-1.55,0-.36-.05-.73.08-1.08.03-.07.08-.12.15-.15.94-.11,1.88-.24,2.81.09h0c0,1.9,0,3.82,0,5.73-.82,0-1.64.01-2.46-.01-.33,0-.43.09-.42.42.02.82.01,1.64.01,2.46Z"/>
      <path class="cls-6" d="m30.99,19.38v-2.86c.96,0,1.92,0,2.88,0,.02.03.05.05.07.08.2.61.07,1.24.1,1.86.03.71.05.72.74.76.65.03,1.33-.15,1.96.15.3.51.15,1.08.16,1.62.03,1.09,0,1.08,1.09,1.1.51,0,1.03-.07,1.53.08.07.03.12.08.15.15.11.94.24,1.88-.07,2.8h-.03c-.14.16-.34.18-.53.18-1.6,0-3.19.02-4.79,0-.1,0-.19-.02-.28-.05-.07-.03-.12-.07-.17-.13-.23-.64-.08-1.31-.11-1.97-.03-.67-.05-.69-.71-.71-.64-.02-1.29.09-1.92-.08-.07-.03-.12-.09-.15-.15-.1-.94-.24-1.89.08-2.82Z"/>
      <path class="cls-6" d="m36.73,10.79c0,.95,0,1.91,0,2.86-.1.13-.25.17-.41.17-.68.03-1.36.03-2.04,0-.15,0-.3-.05-.41-.17l-.02-2.87c.96,0,1.92,0,2.88,0Z"/>
      <path class="cls-2" d="m33.88,13.66c.95,0,1.91,0,2.86,0,0,0,0,0,0,0,.2.24.19.54.17.82-.05.69.16,1.4-.16,2.07-.69.34-1.42.11-2.13.17-.26.02-.54.01-.76-.18,0,0,.01,0,.01,0,0-.96,0-1.91.01-2.87Z"/>
      <path class="cls-5" d="m16.66,30.85c.95,0,1.91,0,2.86,0,.07.06.14.14.14.24.03.88.2,1.77-.11,2.64-.6.34-1.26.13-1.89.17-.33.02-.69.08-.98-.18,0-.96-.02-1.91-.02-2.87Z"/>
      <path class="cls-4" d="m16.68,33.72c.95,0,1.9,0,2.85,0,.02.03.05.05.07.08.15.91.17,1.82,0,2.73-.03.02-.05.05-.08.07-.95,0-1.9,0-2.86,0,0-.96.01-1.92.02-2.87Z"/>
      <path class="cls-6" d="m39.59,16.52c.96,0,1.91,0,2.87,0,0,.96,0,1.91,0,2.87,0,0,0,0,0,0-.2.18-.45.18-.69.17-.69-.02-1.39.08-2.07-.07-.07-.03-.12-.08-.16-.14-.16-.92-.17-1.84,0-2.76.02-.03.05-.05.08-.08Z"/>
      <path class="cls-6" d="m19.53,33.72c0-.96,0-1.92-.01-2.88,0-.95,0-1.91,0-2.86.84,0,1.68,0,2.52.01.27,0,.36-.08.36-.36-.02-.84,0-1.68-.01-2.52.84,0,1.68,0,2.52.01.27,0,.36-.08.36-.36-.02-.84,0-1.68-.01-2.52.95,0,1.9,0,2.86,0,.65-.34,1.34-.12,2.01-.17.3-.02.61-.04.87.18h0c.31.47.16.99.17,1.49.03,1.31-.1,1.17,1.2,1.2.5.01,1.03-.14,1.49.17h0c.31.47.16.99.17,1.49.03,1.31-.1,1.17,1.2,1.2.5.01,1.02-.15,1.49.17,0,1.9-.01,3.81-.02,5.71-.95,0-1.89.01-2.84.02-.31-.45-.17-.96-.18-1.44-.03-1.33.13-1.24-1.23-1.24-1.18,0-2.36,0-3.54,0-.26,0-.54.04-.77-.15-.21-.19-.2-.44-.2-.69,0-.5,0-.99,0-1.49,0-.39-.17-.55-.55-.54-.48.01-.95.01-1.43,0-.4-.01-.55.17-.54.55.01.46.02.92,0,1.37-.02.45.2.61.62.59.46-.01.92,0,1.37,0,.25,0,.5,0,.7.18.31.47.16,1,.17,1.5.03,1.3-.1,1.17,1.2,1.2.5.01,1.02-.15,1.49.17,0,1.9-.01,3.81-.02,5.71-.95,0-1.9.02-2.85.03-.24.2-.53.17-.81.16-.65-.02-1.31.08-1.96-.07-.07-.03-.12-.07-.16-.13-.2-.65-.07-1.32-.1-1.98-.03-.63-.05-.66-.69-.68-.64-.02-1.29.08-1.93-.08-.06-.03-.11-.08-.15-.14-.18-.64-.07-1.29-.09-1.93-.03-.66-.05-.7-.73-.71-.44,0-.88,0-1.32,0-.23,0-.46,0-.65-.17,0,0,0,0,0,0Z"/>
      <path class="cls-2" d="m30.99,22.26c-.96,0-1.92,0-2.88,0,0-.95,0-1.91,0-2.86.95,0,1.91,0,2.86,0,0,.96,0,1.92,0,2.88Z"/>
      <path class="cls-6" d="m36.72,16.53c0-.96,0-1.92.01-2.89.95,0,1.91,0,2.86,0,0,.96,0,1.91,0,2.87,0,0,0,0,0,0-.2.18-.45.18-.7.17-.7-.03-1.4.1-2.09-.09-.03-.02-.05-.05-.08-.07Z"/>
      <path class="cls-4" d="m22.38,39.47c-.95,0-1.9,0-2.86,0,0-.95,0-1.9,0-2.86,0,0,.03-.03.03-.03.64-.32,1.33-.11,1.99-.16.29-.02.61-.04.86.17h0c.18.2.18.46.17.7-.04.7.12,1.41-.11,2.1-.03.03-.05.05-.08.08Z"/>
      <path class="cls-4" d="m25.25,42.33c-.95,0-1.9,0-2.86,0,0-.95,0-1.9,0-2.86,0,0,.03-.03.03-.03.64-.32,1.33-.11,1.99-.16.29-.02.61-.04.86.17h0c.15.17.19.37.17.58-.06.76.18,1.53-.15,2.27l-.03.03Z"/>
      <path class="cls-2" d="m28.13,30.86c1.73,0,3.45.01,5.18,0,.41,0,.58.1.56.54-.03.78,0,1.56,0,2.33-.96,0-1.91,0-2.87,0-.81,0-1.63-.01-2.44,0-.32,0-.43-.11-.43-.43.01-.81,0-1.63,0-2.44h0Z"/>
      <path class="cls-5" d="m25.28,42.3c0-.95-.01-1.9-.02-2.85.95,0,1.91,0,2.86,0,0,.94,0,1.89,0,2.83-.95,0-1.9,0-2.85,0Z"/>
      <path class="cls-7" d="m39.58,19.4h2.87c0,.94.02,1.89.03,2.84,0,0-.04.03-.04.03-.6.33-1.26.12-1.88.16-.33.02-.68.07-.98-.18h0c-.15-.16-.19-.36-.18-.57.06-.76-.19-1.55.17-2.28Z"/>
      <path class="cls-3" d="m39.58,22.26c.95,0,1.91,0,2.86.01,0,.95.01,1.91.02,2.86-.95,0-1.91,0-2.86-.01,0-.95-.01-1.91-.02-2.86Z"/>
      <path class="cls-2" d="m36.72,27.99c-.81,0-1.63-.01-2.44,0-.32,0-.43-.11-.43-.43.01-.81,0-1.63,0-2.44,1.9,0,3.81,0,5.71,0,0,.81,0,1.63.03,2.44,0,.32-.11.44-.43.43-.81-.01-1.63,0-2.44,0Z"/>
      <path class="cls-3" d="m33.85,16.53c.96,0,1.91,0,2.87,0h0c.13.13.18.29.17.47-.02.77.11,1.54-.09,2.31-.02.03-.05.05-.07.08-.84,0-1.68,0-2.52.01-.27,0-.36-.08-.36-.36.01-.84,0-1.68,0-2.52Z"/>
      <path class="cls-3" d="m39.58,19.4c0,.96,0,1.91,0,2.87-.82,0-1.64-.02-2.46,0-.33,0-.42-.09-.41-.42.02-.82.01-1.64.01-2.46,0,0,0,0,0,0,.56-.35,1.18-.14,1.77-.18.37-.02.76-.09,1.09.18h0Z"/>
      <path class="cls-2" d="m33.86,25.13c-.81,0-1.63-.01-2.44,0-.32,0-.43-.11-.43-.43.01-.81,0-1.63,0-2.44.81,0,1.63.01,2.44,0,.32,0,.43.11.43.43-.01.81,0,1.63,0,2.44Z"/>
      <path class="cls-5" d="m22.4,36.59c-.95,0-1.9-.01-2.85-.02,0-.95-.01-1.9-.02-2.85.81,0,1.63.01,2.44,0,.32,0,.43.11.43.43-.02.81,0,1.63,0,2.44Z"/>
      <path class="cls-7" d="m39.58,19.4c-.96,0-1.91,0-2.87,0,0-.95,0-1.91,0-2.86.96,0,1.91,0,2.87,0,0,.96,0,1.91,0,2.87Z"/>
      <path class="cls-2" d="m28.13,30.86c-.78,0-1.56-.02-2.34,0-.38.01-.55-.09-.53-.51.03-.65.02-1.29,0-1.94,0-.32.11-.44.43-.43.67.02,1.33.02,2,0,.36-.01.45.14.45.47-.02.8,0,1.6,0,2.4,0,0,0,0,0,0Z"/>
      <path class="cls-5" d="m25.26,39.45c-.95,0-1.9-.01-2.85-.02,0-.95-.01-1.9-.02-2.85.81,0,1.63.01,2.44,0,.32,0,.43.11.43.43-.02.81,0,1.63,0,2.44Z"/>
    </g>
  </g>
</svg>